<svg xmlns="http://www.w3.org/2000/svg" viewBox="0 0 1000 300"><defs><marker id="a" markerWidth="9" markerHeight="7" refX="8" refY="3.5" orient="auto"><path d="M0,0 9,3.5 0,7z" fill="#24527a"/></marker><style>text{font-family:Arial,'Microsoft YaHei',sans-serif;fill:#14283d}.b{fill:#eef6ff;stroke:#24527a;stroke-width:2}.g{fill:#effaf3;stroke:#16804b;stroke-width:2}.o{fill:#fff3e1;stroke:#b86b16;stroke-width:2}.t{font-size:18px;font-weight:bold}.s{font-size:14px}.l{stroke:#24527a;stroke-width:3;fill:none;marker-end:url(#a)}</style></defs><rect width="1000" height="300" fill="#fcfeff"/><rect class="b" x="25" y="60" width="180" height="90" rx="12"/><text class="t" x="115" y="96" text-anchor="middle">规格/对象</text><text class="s" x="115" y="124" text-anchor="middle">指标与可测信息</text><path class="l" d="M205 105H275"/><rect class="b" x="280" y="60" width="190" height="90" rx="12"/><text class="t" x="375" y="96" text-anchor="middle">前馈</text><text class="s" x="375" y="124" text-anchor="middle">可实现近似逆</text><path class="l" d="M470 105H540"/><rect class="g" x="545" y="60" width="190" height="90" rx="12"/><text class="t" x="640" y="96" text-anchor="middle">串级反馈</text><text class="s" x="640" y="124" text-anchor="middle">内环快，外环慢</text><path class="l" d="M735 105H805"/><rect class="o" x="810" y="60" width="165" height="90" rx="12"/><text class="t" x="892" y="96" text-anchor="middle">数字接口</text><text class="s" x="892" y="124" text-anchor="middle">采样/计算/输出</text><path class="l" d="M892 150V215"/><rect class="o" x="650" y="220" width="325" height="55" rx="12"/><text class="t" x="812" y="254" text-anchor="middle">SIL · HIL · 实机 · 故障日志</text><path class="l" d="M650 247H115V150"/></svg>
