<svg xmlns="http://www.w3.org/2000/svg" width="1100" height="560" viewBox="0 0 1100 560"><rect width="1100" height="560" fill="white"/><g font-family="Microsoft YaHei"><rect x="50" y="80" width="220" height="130" rx="14" fill="#f6f9ff" stroke="#285fa8" stroke-width="2"/><text x="160" y="125" text-anchor="middle" font-size="22">&#24102;&#38480;&#21407;&#20449;&#21495;</text><text x="160" y="165" text-anchor="middle" font-size="17">|&#937;|&#8804;&#937;M</text><rect x="330" y="80" width="220" height="130" rx="14" fill="#eef9f1" stroke="#23824b" stroke-width="2"/><text x="440" y="125" text-anchor="middle" font-size="22">&#20914;&#28608;&#20018;&#37319;&#26679;</text><text x="440" y="165" text-anchor="middle" font-size="17">&#937;s=2&#960;/T</text><rect x="610" y="80" width="220" height="130" rx="14" fill="#fff5e8" stroke="#d87500" stroke-width="2"/><text x="720" y="125" text-anchor="middle" font-size="22">&#39057;&#35889;&#21608;&#26399;&#22797;&#21046;</text><text x="720" y="165" text-anchor="middle" font-size="17">&#38388;&#38548; &#937;s&#65292;&#32553;&#25918; 1/T</text><rect x="885" y="80" width="170" height="130" rx="14" fill="#f8f0ff" stroke="#7c45a8" stroke-width="2"/><text x="970" y="125" text-anchor="middle" font-size="22">&#21028;&#23450;</text><text x="970" y="160" text-anchor="middle" font-size="16">&#937;s&gt;2&#937;M</text><path d="M270 145H330M550 145H610M830 145H885" stroke="#60738e" stroke-width="3"/><rect x="215" y="350" width="300" height="120" rx="14" fill="#eef9f1" stroke="#23824b" stroke-width="2"/><text x="365" y="395" text-anchor="middle" font-size="21">&#21103;&#26412;&#20998;&#31163;</text><text x="365" y="430" text-anchor="middle" font-size="17">&#29702;&#24819;&#20302;&#36890; &#215; T &#8594; &#23436;&#20840;&#37325;&#24314;</text><rect x="600" y="350" width="300" height="120" rx="14" fill="#fff0f0" stroke="#b43b3b" stroke-width="2"/><text x="750" y="395" text-anchor="middle" font-size="21">&#21103;&#26412;&#37325;&#21472;</text><text x="750" y="430" text-anchor="middle" font-size="17">&#28151;&#21472;&#65306;&#20449;&#24687;&#19981;&#21487;&#36870;</text><path d="M970 210C900 290 500 290 365 350M970 210C980 290 840 310 750 350" stroke="#60738e" stroke-width="3" fill="none"/></g></svg>
