<svg xmlns="http://www.w3.org/2000/svg" width="1100" height="560" viewBox="0 0 1100 560" role="img"><rect width="1100" height="560" rx="24" fill="#0b1f33"/><g font-family="Microsoft YaHei,sans-serif"><text x="550" y="45" fill="white" font-size="28" text-anchor="middle">能量 · 卷积 · 相乘 · 调制</text><g fill="#12314d" stroke-width="3"><rect x="45" y="100" width="230" height="170" rx="18" stroke="#60a5fa"/><rect x="305" y="100" width="230" height="170" rx="18" stroke="#38bdf8"/><rect x="565" y="100" width="230" height="170" rx="18" stroke="#34d399"/><rect x="825" y="100" width="230" height="170" rx="18" stroke="#fbbf24"/></g><g fill="white" font-size="16"><text x="160" y="140" fill="#93c5fd" font-size="21" text-anchor="middle">Parseval</text><text x="70" y="180">时域能量</text><text x="70" y="215">等于频域密度积分</text><text x="420" y="140" fill="#7dd3fc" font-size="21" text-anchor="middle">卷积</text><text x="330" y="180">x*h ↔ XH</text><text x="330" y="215">LTI频率响应</text><text x="680" y="140" fill="#6ee7b7" font-size="21" text-anchor="middle">相乘</text><text x="590" y="180">x₁x₂ ↔ 频域卷积</text><text x="590" y="215">带1/(2π)</text><text x="940" y="140" fill="#fde68a" font-size="21" text-anchor="middle">调制</text><text x="850" y="180">乘复指数</text><text x="850" y="215">频谱单向搬移</text></g><rect x="130" y="345" width="840" height="120" rx="18" fill="#10283e" stroke="#94a3b8" stroke-width="2"/><text x="550" y="385" fill="white" font-size="20" text-anchor="middle">控制设计链</text><text x="550" y="425" fill="#cbd5e1" font-size="17" text-anchor="middle">周期误差看功率线谱 · 瞬态误差看能量 · 延迟看相位 · 谐波搬到直流后用低通/PI处理</text><text x="550" y="515" fill="white" font-size="18" text-anchor="middle">边界：冲激不可平方 · 积分需可交换 · 实调制存在镜像频带</text></g></svg>
